<svg width="16" height="16" viewBox="0 0 16 16" fill="none" xmlns="http://www.w3.org/2000/svg">
<g clip-path="url(#clip0_72_1797)">
<path d="M15.8048 0.195435C15.6798 0.0704544 15.5102 0.000244141 15.3334 0.000244141C15.1567 0.000244141 14.9871 0.0704544 14.8621 0.195435L8.0001 7.05744L1.1381 0.195435C1.01308 0.0704544 0.843545 0.000244141 0.666768 0.000244141C0.489992 0.000244141 0.320454 0.0704544 0.195435 0.195435C0.0704544 0.320454 0.000244141 0.489992 0.000244141 0.666768C0.000244141 0.843545 0.0704544 1.01308 0.195435 1.1381L7.05744 8.0001L0.195435 14.8621C0.0704544 14.9871 0.000244141 15.1567 0.000244141 15.3334C0.000244141 15.5102 0.0704544 15.6798 0.195435 15.8048C0.320454 15.9298 0.489992 16 0.666768 16C0.843545 16 1.01308 15.9298 1.1381 15.8048L8.0001 8.94277L14.8621 15.8048C14.9871 15.9298 15.1567 16 15.3334 16C15.5102 16 15.6798 15.9298 15.8048 15.8048C15.9298 15.6798 16 15.5102 16 15.3334C16 15.1567 15.9298 14.9871 15.8048 14.8621L8.94277 8.0001L15.8048 1.1381C15.9298 1.01308 16 0.843545 16 0.666768C16 0.489992 15.9298 0.320454 15.8048 0.195435Z" fill="#858D9D"/>
</g>
<defs>
<clipPath id="clip0_72_1797">
<rect width="16" height="16" fill="white"/>
</clipPath>
</defs>
</svg>
