<svg width="26" height="26" viewBox="0 0 26 26" fill="none" xmlns="http://www.w3.org/2000/svg">
<path d="M19.25 16.75V21.75M21.75 19.25H16.75M18 10.5H20.5C21.8807 10.5 23 9.38071 23 8V5.5C23 4.11929 21.8807 3 20.5 3H18C16.6193 3 15.5 4.11929 15.5 5.5V8C15.5 9.38071 16.6193 10.5 18 10.5ZM5.5 23H8C9.38071 23 10.5 21.8807 10.5 20.5V18C10.5 16.6193 9.38071 15.5 8 15.5H5.5C4.11929 15.5 3 16.6193 3 18V20.5C3 21.8807 4.11929 23 5.5 23ZM5.5 10.5H8C9.38071 10.5 10.5 9.38071 10.5 8V5.5C10.5 4.11929 9.38071 3 8 3H5.5C4.11929 3 3 4.11929 3 5.5V8C3 9.38071 4.11929 10.5 5.5 10.5Z" stroke="#1C1C1C" stroke-width="2" stroke-linecap="round" stroke-linejoin="round"/>
</svg>
