<svg width="26" height="26" viewBox="0 0 26 26" fill="none" xmlns="http://www.w3.org/2000/svg">
<path d="M23.8042 21.3282C22.4118 18.8843 20.2374 16.9801 17.6312 15.9221C18.9273 14.9501 19.8846 13.5949 20.3676 12.0486C20.8507 10.5022 20.8349 8.84308 20.3226 7.30619C19.8103 5.76929 18.8275 4.43254 17.5132 3.48529C16.199 2.53805 14.62 2.02832 13 2.02832C11.38 2.02832 9.801 2.53805 8.48677 3.48529C7.17253 4.43254 6.18965 5.76929 5.67735 7.30619C5.16505 8.84308 5.14931 10.5022 5.63235 12.0486C6.11539 13.5949 7.07272 14.9501 8.36875 15.9221C5.76258 16.9801 3.58825 18.8843 2.19578 21.3282C2.1095 21.467 2.05199 21.6217 2.02668 21.7831C2.00137 21.9445 2.00876 22.1093 2.04843 22.2678C2.0881 22.4263 2.15924 22.5752 2.2576 22.7056C2.35596 22.8361 2.47955 22.9454 2.62102 23.0272C2.76248 23.1089 2.91894 23.1613 3.08108 23.1814C3.24322 23.2015 3.40774 23.1887 3.56486 23.1439C3.72198 23.0991 3.86849 23.0232 3.99568 22.9207C4.12286 22.8181 4.22814 22.691 4.30523 22.547C6.14555 19.3661 9.39555 17.4689 13 17.4689C16.6045 17.4689 19.8545 19.3671 21.6948 22.547C21.8618 22.8157 22.1269 23.0088 22.4338 23.0856C22.7407 23.1625 23.0654 23.1169 23.3394 22.9586C23.6133 22.8004 23.815 22.5418 23.9017 22.2375C23.9885 21.9333 23.9535 21.6072 23.8042 21.3282ZM7.71875 9.75012C7.71875 8.70559 8.02849 7.68451 8.6088 6.81601C9.18911 5.94752 10.0139 5.2706 10.979 4.87088C11.944 4.47115 13.0059 4.36657 14.0303 4.57035C15.0548 4.77412 15.9958 5.27711 16.7344 6.01571C17.473 6.75431 17.976 7.69533 18.1798 8.7198C18.3835 9.74426 18.279 10.8061 17.8792 11.7712C17.4795 12.7362 16.8026 13.561 15.9341 14.1413C15.0656 14.7216 14.0445 15.0314 13 15.0314C11.5998 15.0298 10.2574 14.4728 9.26737 13.4827C8.2773 12.4927 7.72036 11.1503 7.71875 9.75012Z" fill="white"/>
</svg>
