<svg width="20" height="20" viewBox="0 0 20 20" fill="none" xmlns="http://www.w3.org/2000/svg">
<g opacity="0.6">
<mask id="mask0_72_1634" style="mask-type:luminance" maskUnits="userSpaceOnUse" x="0" y="0" width="20" height="20">
<path d="M19.6249 0.607178H0.308502V19.9236H19.6249V0.607178Z" fill="white"/>
</mask>
<g mask="url(#mask0_72_1634)">
<path d="M9.96682 12.6803C10.8558 12.6803 11.5765 11.9596 11.5765 11.0706C11.5765 10.1816 10.8558 9.46094 9.96682 9.46094C9.0778 9.46094 8.35712 10.1816 8.35712 11.0706C8.35712 11.9596 9.0778 12.6803 9.96682 12.6803Z" stroke="black" stroke-width="1.15898" stroke-linejoin="round"/>
<path d="M9.96668 6.6438C6.50194 6.6438 3.91113 9.52782 3.04074 10.6401C2.84051 10.896 2.84051 11.245 3.04074 11.5008C3.91113 12.6131 6.50194 15.4971 9.96668 15.4971C13.4314 15.4971 16.0222 12.6131 16.8927 11.5008C17.0929 11.245 17.0929 10.896 16.8927 10.6401C16.0222 9.52782 13.4314 6.6438 9.96668 6.6438Z" stroke="black" stroke-width="1.15898" stroke-linecap="round" stroke-linejoin="round"/>
</g>
</g>
</svg>
